<svg width="29" height="23" viewBox="0 0 29 23" fill="none" xmlns="http://www.w3.org/2000/svg">
<path d="M0.0025434 11.4918C0.0025432 9.21194 -0.00284908 6.92673 0.0025428 4.64691C0.0133268 2.38865 1.47461 0.56695 3.65305 0.0980507C3.97658 0.0279842 4.31089 0.00642538 4.64521 0.00642536C8.44669 0.00103486 12.2482 -0.00435564 16.0497 0.00642436C18.3791 0.0118143 20.2232 1.54786 20.633 3.83846C20.7247 4.3397 20.6977 4.8571 20.7085 5.36912C20.7193 5.85419 20.7193 6.33925 20.7139 6.82432C20.7085 7.53576 20.2178 8.04777 19.5546 8.04777C18.8913 8.04777 18.4114 7.53037 18.4114 6.81354C18.4114 6.11289 18.4114 5.41224 18.4114 4.71158C18.406 3.28872 17.4408 2.30241 16.0119 2.29702C14.0438 2.29163 12.0756 2.29163 10.1075 2.29163C8.31189 2.29163 6.5109 2.28624 4.7153 2.29163C3.53981 2.29702 2.63932 2.97612 2.38049 4.05944C2.32657 4.2858 2.31039 4.52295 2.31039 4.7547C2.305 9.24428 2.305 13.7392 2.31039 18.2288C2.31039 19.7217 3.28099 20.6973 4.76923 20.6973C8.50061 20.6973 12.2266 20.6973 15.958 20.6973C17.4462 20.6973 18.4168 19.7217 18.4168 18.2288C18.4168 17.5174 18.4114 16.8113 18.4168 16.0999C18.4222 15.4801 18.8806 14.9896 19.4791 14.9465C20.0884 14.9034 20.6761 15.3292 20.6923 15.9544C20.7193 17.0485 20.7678 18.1587 20.6114 19.2313C20.2987 21.3764 18.4168 22.9501 16.2492 22.9771C13.8874 23.004 11.5202 22.9879 9.15846 22.9879C7.67561 22.9879 6.19276 22.9933 4.70991 22.9879C2.28883 22.9825 0.428526 21.3925 0.0564648 19.0103C0.0133282 18.7462 0.0133282 18.4713 0.0133281 18.2019C0.00254379 15.9652 0.00254359 13.7285 0.0025434 11.4918Z" fill="white"/>
<path d="M25.0059 12.619C23.3074 12.619 21.6843 12.619 20.0559 12.619C18.4382 12.619 16.8206 12.619 15.2029 12.619C14.502 12.619 14.0005 12.1394 14.0005 11.4818C14.0005 10.8189 14.4912 10.3338 15.1922 10.3338C18.3466 10.3284 21.501 10.3338 24.6554 10.3338C24.7525 10.3338 24.8441 10.3338 25.0005 10.3338C24.9142 10.2368 24.8657 10.1775 24.8172 10.1236C24.3966 9.70325 23.976 9.28825 23.5608 8.86786C23.0917 8.38818 23.0809 7.68213 23.5338 7.22401C23.9814 6.77128 24.7039 6.76589 25.1785 7.23479C26.327 8.37201 27.4701 9.51461 28.6079 10.668C29.077 11.1423 29.0824 11.816 28.6187 12.2903C27.4755 13.4491 26.327 14.597 25.1677 15.7397C24.6986 16.2032 23.9922 16.1924 23.5446 15.7504C23.0863 15.2977 23.0863 14.5917 23.5554 14.1066C23.9652 13.6862 24.3804 13.282 24.7956 12.867C24.8495 12.7969 24.9035 12.7322 25.0059 12.619Z" fill="white"/>
</svg>
