<svg width="18" height="23" viewBox="0 0 18 23" fill="none" xmlns="http://www.w3.org/2000/svg">
<path d="M16.7523 0.0452182C17.1708 0.193368 17.3856 0.656812 17.2348 1.07467C16.692 2.55997 15.4518 5.94842 14.3737 8.89243C14.3096 9.07097 14.3284 9.16974 14.4641 9.30269C14.8675 9.70535 15.1012 10.1992 15.1351 10.7728C15.1465 10.9703 15.2218 11.0539 15.399 11.1071C15.6177 11.1717 15.8325 11.2552 16.0474 11.3388C17.2801 11.825 17.8757 13.09 17.4648 14.3968C16.8126 16.4481 15.9079 18.3778 14.5961 20.0835C13.2315 21.8612 11.4145 22.8337 9.17533 22.9781C6.88715 23.1756 6.12568 21.9866 6.00128 21.4928C5.0551 21.3674 4.18808 21.0863 3.38891 20.6115C2.09593 19.8441 1.25152 18.6931 0.64838 17.3408C0.42597 16.8393 0.226179 16.3265 0 15.7795C0.43351 15.8175 0.833093 15.8441 1.23268 15.8821C3.453 16.11 5.45091 14.845 6.21615 12.7177C6.46872 12.0226 6.71375 11.3312 6.96631 10.636C7.4526 9.30649 8.78328 8.6835 10.1102 9.16594C10.1177 9.16974 10.1215 9.16974 10.129 9.17354C10.6003 9.42425 10.9998 9.47363 11.4484 9.02159C11.701 8.76707 12.1571 8.6987 12.5379 8.60753C12.7226 8.56194 12.8243 8.52016 12.8922 8.33782C13.9665 5.38621 15.2105 1.98636 15.7496 0.520058C15.8966 0.113595 16.3452 -0.099133 16.7523 0.0452182ZM2.5332 17.4737C2.56713 17.5383 2.58598 17.5877 2.61237 17.6333C3.54347 19.1186 4.90808 19.8441 6.62704 19.9277C6.93992 19.9429 7.25658 19.9315 7.59961 19.9315C7.59961 20.7596 8.28946 21.4206 9.11124 21.3826C10.3326 21.3256 11.4409 20.8736 12.4587 20.0417C13.3106 19.3465 13.8422 18.412 14.385 17.4851C14.6413 17.0445 14.86 16.5848 15.105 16.1138C12.6019 15.1983 10.1404 14.3018 7.66747 13.3977C7.23773 14.5107 6.5705 15.4262 5.65447 16.1518C4.74222 16.8697 3.69426 17.2952 2.5332 17.4737ZM11.75 11.4604C11.6294 11.4224 11.5389 11.3958 11.4484 11.3616C10.8076 11.1299 10.1705 10.8944 9.52967 10.6664C9.13009 10.5259 8.73805 10.6436 8.56087 10.9855C8.41763 11.2628 8.32716 11.5705 8.20653 11.8782C10.7209 12.7975 13.1938 13.7054 15.6855 14.6171C15.776 14.374 15.8589 14.1575 15.9305 13.9409C16.1115 13.4129 15.9268 13.0102 15.4066 12.8127C14.777 12.5772 14.1475 12.3455 13.518 12.1137C13.4313 12.0796 13.3446 12.0416 13.2503 11.9998C13.3446 11.7415 13.435 11.5097 13.5067 11.2742C13.6499 10.8108 13.4463 10.3853 13.0241 10.2334C12.5982 10.0814 12.1797 10.2942 12.0063 10.75C11.9234 10.9779 11.8442 11.2021 11.75 11.4604Z" fill="#636363"/>
</svg>
