<svg width="19" height="23" viewBox="0 0 19 23" fill="none" xmlns="http://www.w3.org/2000/svg">
<path d="M4.75779 5.91854C4.75779 5.37352 4.74111 4.85631 4.76336 4.33909C4.78004 3.94423 4.79116 3.53825 4.88015 3.15451C5.30838 1.33593 6.9045 0.034553 8.76758 0.0067459C9.54062 -0.00437694 10.3359 -0.0210612 11.0867 0.134659C12.8719 0.501712 14.1788 2.14233 14.2289 3.96648C14.2456 4.60604 14.2345 5.24004 14.2345 5.91854C14.6293 5.91854 14.9964 5.91854 15.3634 5.91854C16.2644 5.9241 17.0763 6.19661 17.7604 6.79724C18.5724 7.5091 18.9895 8.41561 18.9895 9.48897C19.0006 12.6479 19.0062 15.8067 18.9895 18.9712C18.9783 20.99 17.3989 22.5305 15.3857 22.5305C11.4649 22.5361 7.54407 22.5361 3.62883 22.5305C1.58222 22.5305 0.0139036 20.9789 0.00834213 18.9267C-0.00278071 15.7956 -0.00278071 12.6645 0.00834213 9.5279C0.0139036 7.47573 1.5711 5.92966 3.62327 5.91297C3.98476 5.91854 4.35181 5.91854 4.75779 5.91854ZM9.49613 20.1558C11.4259 20.1558 13.3502 20.1558 15.28 20.1558C16.1476 20.1558 16.6147 19.6886 16.6147 18.8155C16.6147 15.7567 16.6147 12.6979 16.6147 9.63913C16.6147 8.76598 16.1476 8.29882 15.28 8.29882C11.4426 8.29882 7.60524 8.29882 3.76786 8.29882C2.82798 8.29882 2.37751 8.7493 2.37751 9.7003C2.37751 12.7313 2.37751 15.7623 2.37751 18.7932C2.37751 19.7053 2.82798 20.1613 3.74006 20.1613C5.65875 20.1558 7.57744 20.1558 9.49613 20.1558ZM11.8597 5.89073C11.8597 5.24004 11.8987 4.60048 11.8486 3.96648C11.7819 3.08777 11.1256 2.45377 10.2358 2.37591C9.74639 2.33698 9.25142 2.33698 8.76758 2.37591C7.79433 2.45933 7.14364 3.18232 7.12696 4.17781C7.11584 4.68946 7.1214 5.19555 7.12696 5.7072C7.12696 5.76838 7.14364 5.82955 7.14921 5.89073C8.72309 5.89073 10.2858 5.89073 11.8597 5.89073Z" fill="white"/>
<path d="M8.31745 15.968C8.31745 15.9514 8.31745 15.9291 8.31745 15.9124C8.3675 15.4286 8.26183 15.0727 7.84473 14.7056C6.82142 13.7991 6.89372 12.203 7.91146 11.2853C8.91808 10.3733 10.4808 10.4956 11.3429 11.5578C12.1882 12.5978 11.988 14.1606 10.8979 14.9503C10.7367 15.0671 10.6644 15.1783 10.6755 15.3785C10.6922 15.7845 10.6866 16.1905 10.6755 16.602C10.6588 17.2805 10.1527 17.7922 9.50203 17.7922C8.85134 17.7978 8.33969 17.2861 8.31745 16.6132C8.31188 16.3963 8.31745 16.1849 8.31745 15.968Z" fill="white"/>
</svg>
