<svg width="23" height="23" viewBox="0 0 23 23" fill="none" xmlns="http://www.w3.org/2000/svg">
<path d="M0 11.5C0 5.14873 5.14873 0 11.5 0C17.8513 0 23 5.14873 23 11.5C23 17.8513 17.8513 23 11.5 23C5.14873 23 0 17.8513 0 11.5Z" fill="#F55A5A"/>
<path d="M14.2581 8.97702H8.03002C7.45992 8.97702 7 8.53564 7 7.98851C7 7.44138 7.45992 7 8.03002 7H14.2581C14.8282 7 15.2881 7.44138 15.2881 7.98851C15.2881 8.53564 14.8282 8.97702 14.2581 8.97702Z" fill="white"/>
<path d="M11.1443 17.0003C10.5742 17.0003 10.1143 16.5589 10.1143 16.0117V8.66918C10.1143 8.12205 10.5742 7.68066 11.1443 7.68066C11.7144 7.68066 12.1743 8.12205 12.1743 8.66918V16.0117C12.1743 16.5589 11.7144 17.0003 11.1443 17.0003Z" fill="white"/>
<path d="M9.52002 13.2345C9.17029 13.2345 8.83014 13.0644 8.63851 12.761C8.34148 12.292 8.49958 11.6851 8.98345 11.4046L12.2364 9.51038C12.7251 9.22533 13.3575 9.37705 13.6497 9.84142C13.9467 10.3104 13.7886 10.9173 13.3048 11.1977L10.0518 13.092C9.88412 13.1886 9.70207 13.2345 9.52002 13.2345Z" fill="white"/>
<path d="M9.52002 15.7726C9.17029 15.7726 8.83014 15.6025 8.63851 15.2991C8.34148 14.8301 8.49958 14.2232 8.98345 13.9427L12.2364 12.0485C12.7251 11.7634 13.3575 11.9151 13.6497 12.3795C13.9419 12.8439 13.7886 13.4554 13.3048 13.7358L10.0518 15.6301C9.88412 15.7267 9.70207 15.7726 9.52002 15.7726Z" fill="white"/>
</svg>
